# xmcd
#
# Track frame offsets:
#	150
#	14388
#	26649
#	40321
#	52995
#	65957
#	77842
#	92021
#	103953
#	117106
#	129659
#	143650
#	157093
#	170112
#	182829
#	196287
#	209297
#	223159
#	237537
#	251313
#	263810
#	277044
#	290141
#	302638
#	314913
#
# Disc length: 4346 seconds
#
# Revision: 1
# Processed by: cddbd v1.5.2PL0 Copyright (c) Steve Scherf et al.
# Submitted via: audiograbber 1.83.01
#
DISCID=8c10f819
DTITLE=T-Bone Walker - T-Bone Blues 1949-1954 CD2
DYEAR=1954
DGENRE=Blues 50´s
TTITLE0=Goodbye Blues 
TTITLE1=Too Much Trouble Blues
TTITLE2=I'm Waiting For Your Call 
TTITLE3=Hypin' Woman Blues
TTITLE4=On Your Way Blues
TTITLE5=That's Better For Me
TTITLE6=First Love Blues
TTITLE7=Lonesome Woman Blues
TTITLE8=Vacation Blues
TTITLE9=Inspiration Blues
TTITLE10=Description Blues
TTITLE11=T-Bone Shuffle 
TTITLE12=That Old Feeling Is Gone 
TTITLE13=Prison Blues
TTITLE14=Wise Man Blues
TTITLE15=I Wish You Were Mine 
TTITLE16=Plain Old Down Home Blues 
TTITLE17=Born To Be No Good
TTITLE18=Go Back, To The One You Love
TTITLE19=I Want A Little Girl 
TTITLE20=I'm Still In Love With You 
TTITLE21=You're My Best Poker Hand
TTITLE22=West Side Baby
TTITLE23=Glamour Girl 
TTITLE24=Strollin' With Bones
EXTD=
EXTT0=
EXTT1=
EXTT2=
EXTT3=
EXTT4=
EXTT5=
EXTT6=
EXTT7=
EXTT8=
EXTT9=
EXTT10=
EXTT11=
EXTT12=
EXTT13=
EXTT14=
EXTT15=
EXTT16=
EXTT17=
EXTT18=
EXTT19=
EXTT20=
EXTT21=
EXTT22=
EXTT23=
EXTT24=
PLAYORDER=
